<svg width="89" height="88" viewBox="0 0 89 88" fill="none" xmlns="http://www.w3.org/2000/svg">
<path d="M86.6713 54.6044C84.5768 63.0502 80.024 70.6849 73.5891 76.5425C67.1543 82.4001 59.1265 86.2173 50.5215 87.5111C41.9166 88.8049 33.1212 87.5171 25.2484 83.8107C17.3755 80.1043 10.779 74.1458 6.29356 66.6893C1.8081 59.2328 -0.364736 50.6133 0.0499974 41.9215C0.464731 33.2297 3.44839 24.8563 8.62344 17.8607C13.7985 10.8652 20.9323 5.56188 29.1223 2.62192C37.3123 -0.318037 46.1903 -0.762532 54.633 1.34468C65.9395 4.16667 75.6639 11.3604 81.6708 21.3462C87.6778 31.3321 89.4762 43.2936 86.6713 54.6044Z" fill="#F7931A"/>
<g opacity="0.24">
<path d="M44.0773 87.9346C40.4612 87.9125 36.8613 87.451 33.3566 86.5602C22.0688 83.7228 12.3659 76.5271 6.37358 66.5493C0.381244 56.5715 -1.41187 44.6253 1.38707 33.328C3.49363 24.8908 8.05408 17.2674 14.492 11.4214C20.93 5.57529 28.9565 1.76892 37.5572 0.483312C46.1578 -0.802299 54.9465 0.490555 62.8126 4.19848C70.6787 7.9064 77.269 13.863 81.7508 21.3154C85.7555 27.9866 87.9188 35.6009 88.0199 43.3812C88.1209 51.1616 86.1561 58.8295 82.326 65.6025C78.4958 72.3755 72.9374 78.0112 66.2178 81.9345C59.4983 85.8578 51.8583 87.9283 44.0773 87.9346ZM43.9948 8.21691C36.0237 8.2231 28.2835 10.8942 22.0051 15.8053C15.7266 20.7165 11.2704 27.5858 9.34509 35.3209C7.30481 44.4246 8.90559 53.9652 13.8055 61.9044C18.7053 69.8435 26.5157 75.5518 35.5679 77.8094C44.6201 80.0671 54.1962 78.6952 62.2505 73.9868C70.3047 69.2784 76.1983 61.607 78.672 52.6114C79.8077 48.0575 80.0353 43.3245 79.3417 38.6827C78.648 34.0408 77.0468 29.5811 74.6295 25.5581C72.2121 21.5352 69.026 18.0278 65.253 15.2363C61.48 12.4448 57.1941 10.4239 52.6401 9.28898C49.812 8.58455 46.9092 8.22458 43.9948 8.21691Z" fill="white"/>
</g>
<g opacity="0.3">
<path d="M85.3519 29.0124L0.576269 51.0172C-1.17423 40.2028 1.1742 29.1244 7.16191 19.9503C13.1496 10.7763 22.3455 4.16703 32.9497 1.41627C43.5539 -1.3345 54.803 -0.028777 64.4952 5.07786C74.1873 10.1845 81.6248 18.7244 85.3519 29.0261V29.0124Z" fill="white"/>
</g>
<path d="M78.6583 52.6114C76.9473 59.4692 73.2411 65.6655 68.0084 70.4169C62.7758 75.1683 56.2516 78.2613 49.2611 79.3047C42.2706 80.3481 35.1276 79.2951 28.7355 76.2788C22.3435 73.2626 16.9894 68.4185 13.3504 62.3593C9.7114 56.3001 7.95094 49.2979 8.29165 42.2381C8.63235 35.1783 11.0589 28.3781 15.2645 22.6975C19.47 17.0169 25.2657 12.7109 31.9185 10.3242C38.5713 7.93751 45.7825 7.57724 52.6401 9.28896C61.8349 11.5841 69.7416 17.4376 74.6209 25.562C79.5001 33.6865 80.9524 43.4163 78.6583 52.6114Z" fill="#F7931A"/>
<path d="M61.7663 39.1143C62.536 33.9189 58.6051 31.1151 53.2311 29.2596L54.9903 22.2087L50.7296 21.1366L49.0253 28.0088L45.6166 27.1979L47.3209 20.3257L43.0739 19.2124L41.3284 26.2496L38.5795 25.6036L32.7106 24.1329L31.6248 28.6961C31.6248 28.6961 34.786 29.4245 34.7173 29.4657C35.3071 29.5448 35.8432 29.8498 36.2124 30.3165C36.5817 30.7832 36.7552 31.375 36.6965 31.9672L31.9272 51.2094C31.8662 51.4046 31.7672 51.5858 31.636 51.7426C31.5048 51.8995 31.3439 52.0288 31.1626 52.1233C30.9812 52.2178 30.783 52.2756 30.5793 52.2933C30.3756 52.311 30.1704 52.2883 29.9755 52.2265L26.883 51.4431L24.7526 56.4048L30.2504 57.7793L33.2879 58.5765L31.6248 65.7098L35.8718 66.7819L37.6174 59.731C38.7719 60.0471 39.899 60.3357 41.0123 60.6106L39.2667 67.634L43.5275 68.7061L45.2868 61.5865C52.5438 62.9609 58.0004 62.4111 60.2957 55.8001C62.1512 50.481 60.2132 47.4022 56.3923 45.4093C59.1412 44.7633 61.2578 42.9215 61.89 39.1143H61.7663ZM52.049 52.8588C50.6746 58.1779 41.8232 55.3053 38.9506 54.5906L41.2459 45.1344C44.1597 45.8629 53.4235 47.2923 52.049 52.845V52.8588ZM53.4235 39.1143C52.2277 43.9661 44.8195 41.5059 42.4279 40.9011L44.5583 32.3383C46.9498 32.9431 54.688 34.0701 53.4372 39.1143H53.4235Z" fill="white"/>
</svg>
