<svg width="89" height="88" viewBox="0 0 89 88" fill="none" xmlns="http://www.w3.org/2000/svg">
<path d="M86.6991 54.5963C84.6026 63.0475 80.0455 70.6866 73.6049 76.5463C67.1642 82.406 59.1296 86.2229 50.5184 87.5136C41.9072 88.8043 33.1067 87.5108 25.2311 83.7969C17.3554 80.083 10.7589 74.1157 6.27673 66.6505C1.79455 59.1853 -0.371725 50.558 0.0521837 41.861C0.476092 33.1639 3.47112 24.7882 8.65806 17.7943C13.845 10.8004 20.9906 5.50294 29.1901 2.57255C37.3895 -0.357843 46.2742 -0.789335 54.719 1.33271C66.0135 4.17082 75.7221 11.3711 81.7168 21.3553C87.7114 31.3396 89.5031 43.2932 86.6991 54.5963Z" fill="#0033AD"/>
<g opacity="0.24">
<path d="M44.0773 87.9516C40.492 87.9255 36.9232 87.4638 33.4493 86.5767C22.1522 83.7416 12.4403 76.5426 6.44289 66.558C0.445443 56.5734 -1.34812 44.6181 1.45542 33.3132C3.56695 24.8778 8.13074 17.2573 14.5705 11.4141C21.0102 5.57082 29.037 1.76684 37.6372 0.482546C46.2374 -0.801752 55.0254 0.491224 62.8913 4.19819C70.7571 7.90516 77.3482 13.8599 81.832 21.3103C85.8411 27.9888 88.0053 35.6119 88.1034 43.4007C88.2015 51.1895 86.23 58.8647 82.3904 65.642C78.5508 72.4194 72.9807 78.0559 66.2494 81.9755C59.518 85.8951 51.8667 87.9574 44.0773 87.9516ZM44.0773 8.20752C36.1012 8.21064 28.3552 10.8812 22.0719 15.7942C15.7886 20.7073 11.3289 27.5806 9.40233 35.3205C7.69108 42.1816 8.05317 49.3962 10.4428 56.0515C12.8324 62.7068 17.1422 68.5039 22.827 72.7094C28.5118 76.915 35.3162 79.34 42.3794 79.6778C49.4426 80.0157 56.4474 78.2511 62.5076 74.6072C68.5678 70.9634 73.4112 65.6041 76.4251 59.2072C79.4389 52.8104 80.4879 45.6633 79.4392 38.6702C78.3906 31.6771 75.2915 25.152 70.5339 19.9205C65.7763 14.689 59.574 10.986 52.7116 9.27994C49.8873 8.57558 46.9881 8.21549 44.0773 8.20752Z" fill="white"/>
</g>
<g opacity="0.3">
<path d="M85.4342 29.0097L0.644286 51.0081C-1.08788 40.1994 1.27147 29.1332 7.2615 19.9709C13.2515 10.8086 22.442 4.20837 33.0378 1.45934C43.6335 -1.28968 54.8736 0.0099583 64.5625 5.10442C74.2513 10.1989 81.6931 18.7222 85.4342 29.0097Z" fill="white"/>
</g>
<path d="M78.7385 52.603C77.0294 59.4644 73.3237 65.6647 68.0903 70.4198C62.8569 75.1749 56.3308 78.271 49.3375 79.3167C42.3442 80.3624 35.1979 79.3105 28.8025 76.2942C22.407 73.2779 17.0498 68.4327 13.4084 62.3714C9.76699 56.3101 8.00499 49.305 8.34526 42.2421C8.68553 35.1793 11.1128 28.376 15.32 22.6928C19.5273 17.0096 25.3255 12.7019 31.9812 10.3144C38.637 7.92685 45.8513 7.56689 52.7117 9.27999C61.9066 11.576 69.8134 17.4294 74.694 25.5534C79.5745 33.6773 81.0293 43.4068 78.7385 52.603Z" fill="#0033AD"/>
<path d="M33.8894 43.6112C33.8521 44.4587 34.1525 45.2864 34.7247 45.9128C35.2969 46.5391 36.0942 46.9129 36.9416 46.9522H37.2029C37.8207 46.9379 38.4209 46.7438 38.9301 46.3935C39.4392 46.0432 39.835 45.552 40.0691 44.9801C40.3032 44.4081 40.3654 43.7803 40.248 43.1736C40.1306 42.5669 39.8387 42.0076 39.4082 41.5643C38.9776 41.1209 38.4271 40.8129 37.824 40.6778C37.221 40.5427 36.5917 40.5865 36.0131 40.8037C35.4346 41.021 34.932 41.4024 34.567 41.901C34.202 42.3997 33.9904 42.994 33.9581 43.6112H33.8894ZM21.804 42.7862C21.6685 42.7769 21.5326 42.7944 21.4039 42.8378C21.2752 42.8811 21.1563 42.9495 21.0541 43.0389C20.9519 43.1283 20.8684 43.2371 20.8083 43.3589C20.7483 43.4807 20.7128 43.6131 20.7041 43.7486C20.6986 43.8841 20.7198 44.0193 20.7666 44.1465C20.8134 44.2737 20.8848 44.3905 20.9767 44.4901C21.0687 44.5897 21.1793 44.6702 21.3024 44.727C21.4255 44.7838 21.5586 44.8158 21.694 44.8211C21.8366 44.8435 21.9823 44.8357 22.1216 44.7983C22.261 44.7609 22.391 44.6947 22.5031 44.6039C22.6153 44.5131 22.7071 44.3997 22.7727 44.2712C22.8383 44.1427 22.8762 44.0018 22.8839 43.8577C22.8917 43.7136 22.8691 43.5695 22.8176 43.4347C22.7662 43.2999 22.687 43.1773 22.5852 43.0751C22.4834 42.9728 22.3613 42.893 22.2267 42.8409C22.0922 42.7887 21.9482 42.7654 21.804 42.7725V42.7862ZM33.6831 25.16C33.805 25.1014 33.9139 25.0191 34.0036 24.9179C34.0933 24.8167 34.1619 24.6987 34.2054 24.5707C34.2489 24.4427 34.2665 24.3073 34.2571 24.1724C34.2477 24.0375 34.2115 23.9059 34.1506 23.7851C34.0196 23.5514 33.8057 23.3752 33.5513 23.2912C33.2968 23.2073 33.0201 23.2216 32.7757 23.3314C32.5322 23.4526 32.3465 23.6651 32.2589 23.9226C32.1714 24.1801 32.1891 24.4618 32.3082 24.7063C32.4294 24.9498 32.6419 25.1356 32.8994 25.2231C33.157 25.3107 33.4386 25.2929 33.6831 25.1738V25.16ZM36.9691 30.7834C37.3479 30.5969 37.6374 30.2679 37.774 29.8684C37.9106 29.4689 37.8832 29.0316 37.6978 28.6523C37.4985 28.2754 37.1599 27.9912 36.7542 27.8602C36.3484 27.7293 35.9076 27.7619 35.5255 27.9511C35.3366 28.0418 35.1677 28.1694 35.029 28.3265C34.8903 28.4836 34.7844 28.6669 34.7178 28.8656C34.6511 29.0643 34.625 29.2743 34.6409 29.4833C34.6569 29.6922 34.7145 29.8959 34.8106 30.0822C35.0098 30.4555 35.346 30.7371 35.7485 30.8679C36.151 30.9986 36.5885 30.9683 36.9691 30.7834ZM25.97 34.6468C26.2555 34.8202 26.5943 34.8838 26.9232 34.8256C27.2522 34.7674 27.5487 34.5914 27.7573 34.3306C27.9302 34.0391 27.9893 33.694 27.9233 33.3616C27.8574 33.0292 27.6709 32.7329 27.3999 32.5295C27.103 32.346 26.7475 32.2822 26.4053 32.3512C26.0632 32.4201 25.7601 32.6165 25.5575 32.9007C25.4616 33.0403 25.3944 33.1975 25.3598 33.3632C25.3251 33.529 25.3238 33.7 25.3557 33.8662C25.3877 34.0325 25.4524 34.1908 25.546 34.3319C25.6397 34.4729 25.7604 34.594 25.9012 34.6881L25.97 34.6468ZM27.9361 42.2225C27.7243 42.2037 27.511 42.2275 27.3085 42.2923C27.1061 42.3572 26.9187 42.4619 26.7573 42.6002C26.5959 42.7386 26.4637 42.9078 26.3687 43.0979C26.2736 43.2881 26.2175 43.4953 26.2037 43.7074C26.18 44.1377 26.3282 44.5598 26.6157 44.8808C26.9032 45.2018 27.3064 45.3954 27.7367 45.4191C28.167 45.4428 28.5891 45.2946 28.9101 45.0072C29.2311 44.7197 29.4248 44.3164 29.4485 43.8861C29.4595 43.6755 29.4288 43.4648 29.3579 43.2662C29.287 43.0675 29.1774 42.8849 29.0355 42.7289C28.8935 42.5729 28.7221 42.4466 28.531 42.3573C28.3399 42.2681 28.133 42.2176 27.9223 42.2088L27.9361 42.2225ZM26.1487 52.878C25.849 53.0418 25.621 53.3114 25.5091 53.6342C25.3973 53.957 25.4096 54.3099 25.5437 54.6241C25.7131 54.9325 25.9942 55.1643 26.3292 55.2717C26.6643 55.3792 27.0278 55.354 27.3449 55.2015C27.4976 55.1268 27.6341 55.0227 27.7465 54.8951C27.8589 54.7675 27.9451 54.619 28 54.4581C28.0549 54.2971 28.0776 54.1269 28.0666 53.9572C28.0556 53.7875 28.0113 53.6217 27.9361 53.4692C27.7688 53.1477 27.4815 52.9053 27.1365 52.7946C26.7915 52.6839 26.4167 52.7139 26.0937 52.878H26.1487ZM32.432 38.9365C32.8414 39.1982 33.3351 39.2941 33.8127 39.2047C34.2903 39.1153 34.716 38.8473 35.003 38.4553C35.1443 38.2507 35.2423 38.0195 35.2912 37.7758C35.3401 37.532 35.3387 37.2809 35.2873 37.0377C35.2358 36.7944 35.1353 36.5643 34.9919 36.3612C34.8484 36.1582 34.6651 35.9865 34.4531 35.8567C34.0325 35.5838 33.5215 35.487 33.0303 35.5873C32.5391 35.6876 32.1069 35.977 31.827 36.3929C31.5573 36.7988 31.458 37.2945 31.5506 37.773C31.6432 38.2515 31.9203 38.6743 32.322 38.9502L32.432 38.9365ZM52.3818 30.6871C52.7391 30.8997 53.1639 30.9682 53.57 30.8788C53.976 30.7895 54.3328 30.5489 54.5678 30.2059C54.6837 30.0339 54.7643 29.8405 54.8049 29.6371C54.8456 29.4337 54.8454 29.2243 54.8045 29.021C54.7635 28.8176 54.6827 28.6244 54.5665 28.4526C54.4504 28.2807 54.3013 28.1336 54.1279 28.0198C53.7701 27.7843 53.3337 27.6998 52.9138 27.7848C52.494 27.8698 52.1248 28.1174 51.8868 28.4735C51.7738 28.6429 51.6954 28.833 51.6564 29.0328C51.6173 29.2327 51.6182 29.4383 51.6592 29.6378C51.7001 29.8372 51.7801 30.0266 51.8947 30.1949C52.0093 30.3633 52.1562 30.5072 52.3268 30.6184L52.3818 30.6871ZM55.6953 25.0913C55.9332 25.211 56.2072 25.2379 56.4639 25.1668C56.7206 25.0956 56.9416 24.9315 57.0839 24.7063C57.2266 24.4866 57.2777 24.2198 57.2263 23.9629C57.1749 23.706 57.0251 23.4794 56.8089 23.3314C56.5748 23.1854 56.2938 23.134 56.0231 23.1876C55.7525 23.2412 55.5123 23.3959 55.3515 23.6201C55.2029 23.8512 55.15 24.131 55.2039 24.4004C55.2578 24.6697 55.4142 24.9076 55.6403 25.0638L55.6953 25.0913ZM52.5742 40.5726C52.1498 40.5342 51.722 40.5815 51.3162 40.7119C50.9105 40.8422 50.5351 41.0529 50.2125 41.3314C49.8899 41.6098 49.6266 41.9504 49.4383 42.3327C49.25 42.715 49.1407 43.1313 49.1167 43.5568C49.0927 43.9823 49.1545 44.4083 49.2986 44.8094C49.4427 45.2105 49.666 45.5785 49.9553 45.8914C50.2446 46.2044 50.5939 46.4559 50.9824 46.6311C51.3709 46.8062 51.7907 46.9014 52.2168 46.9109H52.3955C53.2048 46.8856 53.9738 46.5522 54.5454 45.9788C55.1171 45.4054 55.4481 44.6353 55.4709 43.826C55.4938 43.0166 55.2066 42.2291 54.6682 41.6245C54.1298 41.0198 53.3808 40.6435 52.5742 40.5726ZM38.0416 38.7165C38.3188 39.2424 38.7341 39.6828 39.2428 39.9904C39.7515 40.2981 40.3344 40.4613 40.9289 40.4626C41.3514 40.4663 41.7704 40.3866 42.1622 40.2283C42.5539 40.07 42.9106 39.836 43.2119 39.5398C43.5132 39.2436 43.7532 38.891 43.9182 38.502C44.0832 38.113 44.17 37.6954 44.1736 37.2729C44.1622 36.7931 44.0399 36.3225 43.8161 35.898C43.4153 35.1464 42.7362 34.5817 41.9241 34.3247C41.1121 34.0678 40.2317 34.139 39.4715 34.5231C38.7313 34.8954 38.1668 35.5433 37.8994 36.3275C37.632 37.1117 37.683 37.9696 38.0416 38.7165ZM63.4222 34.5918C63.6943 34.4291 63.9017 34.1773 64.0095 33.8792C64.1172 33.581 64.1186 33.2548 64.0134 32.9557C63.842 32.6531 63.5623 32.4267 63.2306 32.3221C62.899 32.2175 62.54 32.2425 62.226 32.392C62.0721 32.4655 61.9342 32.5687 61.8204 32.6958C61.7066 32.8228 61.619 32.9711 61.5627 33.1322C61.5065 33.2932 61.4827 33.4638 61.4927 33.6341C61.5027 33.8044 61.5463 33.971 61.6211 34.1244C61.7994 34.4232 62.0845 34.6434 62.4187 34.7403C62.753 34.8373 63.1116 34.8039 63.4222 34.6468V34.5918ZM55.1728 35.5955C54.7301 35.8092 54.3903 36.1898 54.228 36.6538C54.0656 37.1178 54.0939 37.6272 54.3066 38.0703C54.5387 38.513 54.9339 38.848 55.4086 39.0046C55.8833 39.1611 56.4003 39.1268 56.8502 38.909C57.2928 38.6953 57.6326 38.3147 57.795 37.8507C57.9574 37.3867 57.9291 36.8773 57.7164 36.4342C57.4644 36.0235 57.0685 35.7213 56.6059 35.5866C56.1433 35.4519 55.6471 35.4943 55.214 35.7055L55.1728 35.5955ZM44.5861 24.5963C44.9281 24.598 45.2585 24.4722 45.5127 24.2434C45.767 24.0146 45.9268 23.6992 45.961 23.3589C45.9624 23.0147 45.8346 22.6825 45.603 22.428C45.3713 22.1734 45.0526 22.015 44.7098 21.984C44.5087 21.9089 44.2927 21.8819 44.0793 21.9052C43.8659 21.9286 43.6608 22.0016 43.4807 22.1184C43.3005 22.2352 43.1502 22.3926 43.0419 22.578C42.9335 22.7633 42.87 22.9715 42.8566 23.1858C42.8431 23.4001 42.88 23.6145 42.9643 23.812C43.0487 24.0095 43.1781 24.1844 43.3422 24.3229C43.5063 24.4613 43.7006 24.5594 43.9094 24.6093C44.1182 24.6592 44.3359 24.6594 44.5448 24.6101L44.5861 24.5963ZM44.5861 32.8457C44.8321 32.8663 45.0799 32.8376 45.3147 32.7613C45.5495 32.685 45.7668 32.5626 45.9537 32.4012C46.1407 32.2399 46.2935 32.0429 46.4034 31.8218C46.5132 31.6006 46.5778 31.3598 46.5934 31.1133C46.6226 30.6101 46.4507 30.1159 46.1155 29.7395C45.7803 29.363 45.3093 29.1352 44.8061 29.106C44.3029 29.0768 43.8087 29.2487 43.4322 29.5839C43.0558 29.9191 42.8279 30.3901 42.7987 30.8933C42.7858 31.1383 42.8215 31.3833 42.9038 31.6144C42.9862 31.8454 43.1135 32.0578 43.2784 32.2394C43.4433 32.4209 43.6426 32.568 43.8647 32.6721C44.0868 32.7761 44.3273 32.8351 44.5723 32.8457H44.5861ZM34.2743 51.9293C34.717 51.7155 35.0568 51.335 35.2192 50.871C35.3816 50.407 35.3533 49.8976 35.1405 49.4545C34.9058 49.0108 34.5081 48.6755 34.0311 48.5191C33.5542 48.3626 33.0351 48.3973 32.5832 48.6158C32.1406 48.8295 31.8008 49.2101 31.6384 49.6741C31.476 50.138 31.5043 50.6475 31.717 51.0906C31.9492 51.5368 32.3468 51.8744 32.8248 52.0312C33.3027 52.1879 33.823 52.1513 34.2743 51.9293ZM45.8235 35.5817C45.602 35.9311 45.4522 36.3211 45.3828 36.7289C45.3134 37.1367 45.3258 37.5542 45.4191 37.9572C45.5125 38.3602 45.6851 38.7406 45.9268 39.0763C46.1685 39.412 46.4746 39.6963 46.8272 39.9127C47.5448 40.3766 48.4155 40.5415 49.2531 40.3719C50.0907 40.2023 50.8287 39.7118 51.3093 39.0052C51.5411 38.6563 51.7008 38.2646 51.7793 37.8532C51.8578 37.4417 51.8533 37.0187 51.7663 36.609C51.6792 36.1992 51.5112 35.811 51.2722 35.467C51.0332 35.123 50.728 34.8301 50.3744 34.6056C49.8421 34.2742 49.2278 34.098 48.6008 34.0969C48.0598 34.0881 47.5251 34.2143 47.045 34.4639C46.5649 34.7136 46.1546 35.0788 45.851 35.5268L45.8235 35.5817ZM51.4606 48.8633C51.0571 48.1108 50.3754 47.5458 49.5611 47.2889C48.7468 47.032 47.8644 47.1036 47.1021 47.4884C46.7303 47.6761 46.3994 47.9358 46.1286 48.2523C45.8579 48.5688 45.6526 48.9359 45.5247 49.3324C45.3968 49.7288 45.3489 50.1467 45.3836 50.5618C45.4184 50.9768 45.5352 51.3809 45.7272 51.7505C46.1281 52.5021 46.8072 53.0668 47.6193 53.3238C48.4313 53.5808 49.3117 53.5096 50.0719 53.1254C50.4491 52.945 50.7866 52.6913 51.0646 52.379C51.3427 52.0668 51.5557 51.7023 51.6914 51.3068C51.8271 50.9113 51.8826 50.4928 51.8548 50.0756C51.827 49.6584 51.7163 49.251 51.5293 48.877L51.4606 48.8633ZM57.1114 48.6433C56.6908 48.3703 56.1799 48.2736 55.6886 48.3739C55.1974 48.4742 54.7652 48.7635 54.4853 49.1795C54.239 49.5892 54.1629 50.0792 54.2734 50.5443C54.384 51.0095 54.6722 51.4129 55.0766 51.6681C55.4971 51.941 56.0081 52.0378 56.4993 51.9375C56.9906 51.8372 57.4227 51.5478 57.7026 51.1318C57.9724 50.726 58.0716 50.2303 57.979 49.7518C57.8864 49.2733 57.6094 48.8505 57.2076 48.5745L57.1114 48.6433ZM63.3259 43.8174C63.3447 43.3952 63.1966 42.9825 62.9136 42.6687C62.6306 42.3548 62.2355 42.1649 61.8136 42.14C61.389 42.1136 60.9712 42.2565 60.6517 42.5373C60.3322 42.8182 60.1369 43.2142 60.1087 43.6387C60.0957 43.8504 60.1251 44.0626 60.1951 44.2628C60.2652 44.463 60.3744 44.6473 60.5165 44.8048C60.6587 44.9622 60.8308 45.0898 61.0228 45.1799C61.2148 45.2701 61.4229 45.321 61.6348 45.3298C62.0584 45.3487 62.4726 45.201 62.7887 44.9183C63.1048 44.6357 63.2976 44.2405 63.3259 43.8174ZM67.7944 42.69C67.5229 42.671 67.255 42.7601 67.049 42.9378C66.843 43.1155 66.7155 43.3674 66.6944 43.6387C66.687 43.7752 66.7069 43.9119 66.7528 44.0407C66.7987 44.1695 66.8698 44.2879 66.962 44.389C67.0541 44.4901 67.1654 44.5718 67.2894 44.6295C67.4134 44.6871 67.5477 44.7196 67.6844 44.7248C67.8269 44.7472 67.9726 44.7395 68.112 44.7021C68.2513 44.6647 68.3813 44.5984 68.4934 44.5076C68.6056 44.4168 68.6974 44.3035 68.7631 44.1749C68.8287 44.0464 68.8666 43.9056 68.8743 43.7615C68.882 43.6174 68.8594 43.4732 68.808 43.3384C68.7565 43.2036 68.6773 43.0811 68.5755 42.9788C68.4737 42.8765 68.3516 42.7967 68.2171 42.7446C68.0825 42.6925 67.9385 42.6692 67.7944 42.6762V42.69ZM63.6009 52.878C63.3024 52.6958 62.9458 52.6343 62.6035 52.7058C62.2613 52.7773 61.9591 52.9765 61.7586 53.2629C61.6636 53.4052 61.5979 53.565 61.5652 53.7329C61.5324 53.9008 61.5334 54.0735 61.5679 54.2411C61.6024 54.4086 61.6699 54.5676 61.7663 54.7089C61.8628 54.8502 61.9863 54.9709 62.1298 55.0641C62.4266 55.2476 62.7822 55.3113 63.1243 55.2424C63.4664 55.1734 63.7695 54.977 63.9721 54.6928C64.068 54.5533 64.1352 54.396 64.1699 54.2303C64.2045 54.0646 64.2059 53.8936 64.1739 53.7273C64.1419 53.561 64.0772 53.4027 63.9836 53.2617C63.89 53.1206 63.7692 52.9995 63.6284 52.9055L63.6009 52.878ZM33.8619 62.5023C33.6298 62.3571 33.3511 62.3061 33.0827 62.3598C32.8143 62.4134 32.5766 62.5677 32.4182 62.791C32.279 63.0117 32.2299 63.2775 32.2811 63.5334C32.3323 63.7893 32.4798 64.0157 32.6932 64.1659C32.9264 64.3152 33.2084 64.3686 33.48 64.3148C33.7517 64.261 33.992 64.1041 34.1506 63.8772C34.2996 63.6618 34.3571 63.3963 34.3108 63.1386C34.2644 62.8809 34.1178 62.6521 33.9031 62.5023H33.8619ZM55.8602 62.406C55.6167 62.5272 55.431 62.7397 55.3434 62.9972C55.2559 63.2547 55.2736 63.5364 55.3928 63.7809C55.5238 64.0146 55.7376 64.1908 55.9921 64.2748C56.2466 64.3588 56.5233 64.3444 56.7677 64.2346C56.8895 64.176 56.9985 64.0937 57.0881 63.9925C57.1778 63.8913 57.2464 63.7733 57.2899 63.6453C57.3334 63.5173 57.351 63.3819 57.3416 63.247C57.3322 63.1121 57.296 62.9805 57.2351 62.8597C57.1088 62.6212 56.896 62.44 56.6405 62.3531C56.3849 62.2662 56.1058 62.2802 55.8602 62.3923V62.406ZM43.6649 51.998C44.127 51.3025 44.2953 50.4525 44.133 49.6334C43.9708 48.8143 43.4911 48.0926 42.7987 47.6259H42.73C42.0123 47.1619 41.1416 46.9971 40.3041 47.1666C39.4665 47.3362 38.7285 47.8267 38.2478 48.5333C38.0139 48.8827 37.8523 49.2755 37.7727 49.6884C37.693 50.1012 37.6969 50.5259 37.784 50.9373C37.8712 51.3486 38.0398 51.7384 38.2801 52.0835C38.5203 52.4286 38.8272 52.7221 39.1827 52.9467C39.904 53.4024 40.7737 53.561 41.6094 53.3892C42.4451 53.2175 43.1818 52.7287 43.6649 52.0255V51.998ZM37.2029 56.8652C36.8441 56.6332 36.4087 56.5508 35.9899 56.6356C35.5711 56.7203 35.2021 56.9656 34.9618 57.3189C34.8459 57.4909 34.7653 57.6842 34.7247 57.8876C34.6841 58.091 34.6842 58.3005 34.7252 58.5038C34.7661 58.7072 34.847 58.9004 34.9631 59.0722C35.0793 59.2441 35.2284 59.3912 35.4018 59.505C35.7594 59.7404 36.1946 59.8276 36.6154 59.7481C37.0362 59.6685 37.4095 59.4285 37.6566 59.0788C37.7713 58.91 37.8516 58.7202 37.893 58.5204C37.9343 58.3205 37.9359 58.1145 37.8976 57.914C37.8593 57.7136 37.7818 57.5226 37.6697 57.3521C37.5576 57.1816 37.413 57.0348 37.2441 56.9202L37.2029 56.8652ZM44.7648 62.9422C44.489 62.9173 44.212 62.9763 43.9703 63.1114C43.7285 63.2465 43.5332 63.4515 43.4099 63.6996C43.2866 63.9476 43.2411 64.227 43.2794 64.5014C43.3176 64.7757 43.4378 65.0321 43.6242 65.2369C43.8106 65.4417 44.0546 65.5855 44.3241 65.6494C44.5936 65.7133 44.8761 65.6942 45.1346 65.5948C45.3931 65.4954 45.6156 65.3202 45.7728 65.0922C45.9301 64.8643 46.0149 64.5941 46.016 64.3171C46.0171 63.9708 45.8874 63.6367 45.6529 63.3818C45.4184 63.1269 45.0963 62.9699 44.7511 62.9422H44.7648ZM44.7648 54.6928C44.5115 54.6663 44.2554 54.6919 44.0123 54.7679C43.7692 54.8439 43.5442 54.9688 43.3511 55.1348C43.158 55.3009 43.0009 55.5047 42.8893 55.7337C42.7778 55.9627 42.7142 56.212 42.7025 56.4664C42.6895 56.7143 42.7261 56.9622 42.81 57.1958C42.8938 57.4294 43.0234 57.6439 43.191 57.8269C43.3587 58.0099 43.5611 58.1577 43.7864 58.2617C44.0118 58.3657 44.2556 58.4238 44.5036 58.4326C45.0025 58.4589 45.4916 58.2875 45.8648 57.9554C46.2381 57.6233 46.4653 57.1575 46.4972 56.6589C46.5162 56.1756 46.3457 55.704 46.0221 55.3445C45.6986 54.985 45.2474 54.766 44.7648 54.7341V54.6928ZM52.5467 56.7002C52.3613 56.791 52.1957 56.9175 52.0593 57.0725C51.923 57.2275 51.8186 57.408 51.7522 57.6034C51.6857 57.7989 51.6586 58.0055 51.6722 58.2115C51.6859 58.4175 51.7401 58.6188 51.8318 58.8038C52.0309 59.1808 52.3704 59.4644 52.777 59.593C53.1835 59.7217 53.6244 59.6851 54.0041 59.4912C54.193 59.4003 54.3618 59.2728 54.5009 59.116C54.64 58.9593 54.7466 58.7764 54.8144 58.5781C54.8822 58.3799 54.9099 58.1701 54.8959 57.961C54.8819 57.7519 54.8265 57.5476 54.7328 57.3601C54.5148 56.9991 54.1677 56.7344 53.7618 56.6195C53.356 56.5046 52.9217 56.5482 52.5467 56.7414V56.7002Z" fill="white"/>
</svg>
