<svg width="88" height="88" viewBox="0 0 88 88" fill="none" xmlns="http://www.w3.org/2000/svg">
<path d="M44 88C68.3005 88 88 68.3005 88 44C88 19.6995 68.3005 0 44 0C19.6995 0 0 19.6995 0 44C0 68.3005 19.6995 88 44 88Z" fill="#2488FF"/>
<path d="M44 81.931C64.9487 81.931 81.931 64.9487 81.931 44C81.931 23.0513 64.9487 6.06897 44 6.06897C23.0513 6.06897 6.06897 23.0513 6.06897 44C6.06897 64.9487 23.0513 81.931 44 81.931Z" fill="#006DF0"/>
<path d="M44.22 0C44.7114 2.00454 45.0612 4.04115 45.2669 6.09476C52.2719 6.32822 59.0753 8.49804 64.9221 12.3634C70.7688 16.2288 75.4302 21.6385 78.389 27.9924C81.3478 34.3462 82.4882 41.3955 81.6838 48.3582C80.8794 55.3208 78.1615 61.9244 73.8318 67.4361C69.5022 72.9479 63.73 77.1522 57.1559 79.5825C50.5818 82.0128 43.4629 82.5741 36.5891 81.2041C29.7154 79.8341 23.3556 76.5863 18.2157 71.8212C13.0757 67.0561 9.35655 60.96 7.4709 54.2095C5.49777 54.4796 3.50875 54.6169 1.51724 54.6207C1.4429 54.6207 1.36552 54.6207 1.29724 54.6207C3.28548 62.6137 7.47734 69.8881 13.3959 75.6163C19.3144 81.3445 26.7219 85.2965 34.7756 87.0225C42.8293 88.7485 51.2057 88.1793 58.9519 85.3797C66.698 82.58 73.5029 77.6623 78.5921 71.1861C83.6813 64.7099 86.8505 56.9353 87.7392 48.7468C88.6279 40.5583 87.2003 32.2848 83.6189 24.8676C80.0376 17.4504 74.4462 11.1874 67.481 6.79112C60.5158 2.39487 52.4565 0.041921 44.22 0Z" fill="#006DF0"/>
<path d="M44 81.931C53.9041 81.8618 63.3883 77.9216 70.4258 70.9522C77.4632 63.9829 81.4955 54.5375 81.6609 44.6345C81.8264 34.7315 78.1118 25.1566 71.3112 17.9561C64.5105 10.7556 55.1632 6.50071 45.2669 6.10077C45.4278 7.6021 45.5114 9.11071 45.5172 10.6206C45.5157 21.2577 41.6607 31.5341 34.666 39.5479C27.6712 47.5616 18.0101 52.7702 7.47089 54.2095C9.69952 62.1838 14.4762 69.21 21.072 74.2154C27.6677 79.2208 35.72 81.9305 44 81.931Z" fill="#005ECE"/>
<path d="M63.6786 50.069L44 57.6097L24.3214 50.069L44 72.7821L63.6786 50.069Z" fill="#BDDBFF"/>
<path d="M60.8565 45.0772L44 15.2179L27.1434 45.0772L44 51.5407L60.8565 45.0772Z" fill="#BDDBFF"/>
</svg>
