<svg width="88" height="88" viewBox="0 0 88 88" fill="none" xmlns="http://www.w3.org/2000/svg">
<path d="M86.6806 54.6037C84.5845 63.0532 80.0284 70.6906 73.5891 76.5491C67.1498 82.4076 59.117 86.2236 50.5076 87.5141C41.8983 88.8045 33.0996 87.5113 25.2257 83.7981C17.3517 80.085 10.7566 74.119 6.27539 66.6554C1.79417 59.1918 -0.371645 50.5664 0.0521726 41.8712C0.47599 33.176 3.47038 24.8021 8.65621 17.8097C13.842 10.8173 20.9861 5.52093 29.1838 2.59117C37.3815 -0.3386 46.2643 -0.77 54.7073 1.35159C65.9994 4.18909 75.7059 11.3878 81.6993 21.3699C87.6927 31.352 89.484 43.3031 86.6806 54.6037Z" fill="#000101"/>
<g opacity="0.24">
<path d="M44.0679 87.9516C37.393 87.9407 30.8082 86.4109 24.8122 83.478C18.8162 80.5451 13.5663 76.2862 9.46017 71.0237C5.35405 65.7612 2.49941 59.6333 1.11249 53.1041C-0.274431 46.575 -0.15725 39.8158 1.45515 33.3386C4.28965 22.044 11.4871 12.3341 21.4696 6.33797C31.452 0.341806 43.4048 -1.45138 54.7073 1.35157C65.0645 4.0026 74.1017 10.335 80.1294 19.1648C86.1571 27.9947 88.7627 38.7176 87.459 49.3289C86.1553 59.9403 81.0316 69.7136 73.0458 76.8218C65.06 83.93 54.7588 87.8865 44.0679 87.9516ZM44.0679 8.22459C36.0958 8.23077 28.3547 10.9021 22.0756 15.8139C15.7964 20.7257 11.3397 27.5958 9.41411 35.3318C7.46129 44.4032 9.1132 53.8786 14.0205 61.754C18.9278 69.6295 26.7058 75.2876 35.7095 77.5319C44.7133 79.7761 54.237 78.4305 62.2665 73.7797C70.2961 69.1288 76.202 61.5373 78.7354 52.6105C81.0257 43.4163 79.5712 33.6889 74.6917 25.5667C69.8122 17.4445 61.9071 11.5923 52.7141 9.29678C49.8858 8.59227 46.9826 8.23226 44.0679 8.22459Z" fill="white"/>
</g>
<g opacity="0.3">
<path d="M85.4297 29.0224L0.64416 51.016C-1.10654 40.2003 1.24216 29.1206 7.23057 19.9455C13.219 10.7704 22.416 4.16038 33.0214 1.40929C43.6269 -1.3418 54.8772 -0.0359223 64.5705 5.07131C74.2638 10.1785 81.7022 18.7195 85.4297 29.0224Z" fill="white"/>
</g>
<path d="M78.7354 52.6105C77.0266 59.4704 73.3217 65.6694 68.0894 70.4235C62.8571 75.1775 56.3324 78.273 49.3406 79.3185C42.3488 80.3639 35.204 79.3123 28.81 76.2966C22.4159 73.281 17.0598 68.4368 13.4192 62.3768C9.77858 56.3168 8.01695 49.3132 8.35715 42.2518C8.69735 35.1905 11.1241 28.3887 15.3304 22.7067C19.5368 17.0247 25.3337 12.7179 31.9881 10.3309C38.6424 7.94388 45.8552 7.58399 52.7141 9.29673C61.9071 11.5923 69.8122 17.4444 74.6917 25.5666C79.5712 33.6888 81.0257 43.4163 78.7354 52.6105Z" fill="#000101"/>
<path d="M29.6895 52.7755C29.8168 52.6457 29.9686 52.5423 30.1362 52.4715C30.3037 52.4008 30.4836 52.3639 30.6655 52.3632H64.7557C64.9465 52.3738 65.1255 52.4591 65.2541 52.6005C65.3826 52.7419 65.4505 52.9282 65.443 53.1192C65.4312 53.2917 65.3637 53.4558 65.2505 53.5866L58.515 60.3084C58.3876 60.4383 58.2358 60.5416 58.0683 60.6124C57.9008 60.6832 57.7209 60.72 57.539 60.7207H23.4488C23.3014 60.7302 23.1547 60.6928 23.0297 60.6139C22.9048 60.535 22.808 60.4187 22.7531 60.2815C22.6982 60.1443 22.6881 59.9933 22.7242 59.85C22.7602 59.7067 22.8407 59.5785 22.954 59.4836L29.6895 52.7755Z" fill="url(#paint0_linear_22_429)"/>
<path d="M29.6895 27.6203C29.8168 27.4904 29.9686 27.3871 30.1361 27.3163C30.3037 27.2455 30.4836 27.2086 30.6655 27.2079H64.7556C64.8483 27.2078 64.9399 27.2265 65.0252 27.2627C65.1104 27.299 65.1874 27.3521 65.2516 27.4188C65.3158 27.4856 65.3659 27.5646 65.3987 27.6512C65.4316 27.7378 65.4466 27.8301 65.4429 27.9227C65.4412 28.1015 65.3726 28.2731 65.2505 28.4038L58.5149 35.1531C58.3876 35.283 58.2358 35.3863 58.0683 35.4571C57.9007 35.5279 57.7208 35.5647 57.539 35.5655H23.4488C23.258 35.5548 23.079 35.4696 22.9504 35.3281C22.8218 35.1867 22.754 35.0004 22.7615 34.8094C22.7733 34.6369 22.8408 34.4729 22.9539 34.3421L29.6895 27.6203Z" fill="url(#paint1_linear_22_429)"/>
<path d="M58.5149 40.1154C58.3876 39.9855 58.2358 39.8822 58.0683 39.8114C57.9008 39.7406 57.7208 39.7038 57.539 39.703H23.4488C23.258 39.7137 23.079 39.7989 22.9504 39.9403C22.8218 40.0818 22.754 40.2681 22.7615 40.459C22.7733 40.6316 22.8408 40.7956 22.9539 40.9264L29.6895 47.6345C29.8168 47.7643 29.9686 47.8677 30.1361 47.9385C30.3037 48.0093 30.4836 48.0461 30.6655 48.0469H64.7556C64.8477 48.0451 64.9385 48.0252 65.0229 47.9883C65.1073 47.9514 65.1835 47.8982 65.2474 47.8318C65.3112 47.7655 65.3613 47.6872 65.3949 47.6014C65.4284 47.5156 65.4448 47.4241 65.4429 47.3321C65.4412 47.1533 65.3726 46.9816 65.2505 46.8509L58.5149 40.1154Z" fill="url(#paint2_linear_22_429)"/>
<defs>
<linearGradient id="paint0_linear_22_429" x1="63.3948" y1="28.2251" x2="37.2086" y2="66.6178" gradientUnits="userSpaceOnUse">
<stop stop-color="#00FFA3"/>
<stop offset="1" stop-color="#DC1FFF"/>
</linearGradient>
<linearGradient id="paint1_linear_22_429" x1="51.6969" y1="20.2386" x2="25.5107" y2="58.6313" gradientUnits="userSpaceOnUse">
<stop stop-color="#00FFA3"/>
<stop offset="1" stop-color="#DC1FFF"/>
</linearGradient>
<linearGradient id="paint2_linear_22_429" x1="57.5252" y1="24.2112" x2="31.339" y2="62.6039" gradientUnits="userSpaceOnUse">
<stop stop-color="#00FFA3"/>
<stop offset="1" stop-color="#DC1FFF"/>
</linearGradient>
</defs>
</svg>
